<?xml version="1.0" encoding="UTF-8" standalone="no"?>
<!-- Created with Inkscape (http://www.inkscape.org/) -->

<svg
   width="210mm"
   height="210mm"
   viewBox="0 0 210 210"
   version="1.1"
   id="svg1"
   xml:space="preserve"
   inkscape:version="1.4.3 (0d15f75042, 2025-12-25)"
   sodipodi:docname="radius2.svg"
   xmlns:inkscape="http://www.inkscape.org/namespaces/inkscape"
   xmlns:sodipodi="http://sodipodi.sourceforge.net/DTD/sodipodi-0.dtd"
   xmlns="http://www.w3.org/2000/svg"
   xmlns:svg="http://www.w3.org/2000/svg"
   xmlns:inkscape0="https://www.inkscape.org/namespaces/inkscape"><sodipodi:namedview
     id="namedview1"
     pagecolor="#ffffff"
     bordercolor="#000000"
     borderopacity="0.25"
     inkscape:showpageshadow="2"
     inkscape:pageopacity="0.0"
     inkscape:pagecheckerboard="0"
     inkscape:deskcolor="#d1d1d1"
     inkscape:document-units="mm"
     showguides="true"
     inkscape:zoom="1.0494603"
     inkscape:cx="437.84408"
     inkscape:cy="440.70269"
     inkscape:window-width="1920"
     inkscape:window-height="1014"
     inkscape:window-x="0"
     inkscape:window-y="0"
     inkscape:window-maximized="1"
     inkscape:current-layer="layer1" /><defs
     id="defs1" /><g
     inkscape:label="Layer 1"
     inkscape:groupmode="layer"
     id="layer1"><path
       id="path1"
       style="baseline-shift:baseline;display:inline;overflow:visible;vector-effect:none;stroke-linecap:round;stroke-linejoin:round;enable-background:accumulate;stop-color:#000000;stop-opacity:1;opacity:0.983078"
       d="M 119.55262 -76.379045 C 115.25659 -71.190097 111.64715 -64.073973 108.62284 -55.437545 C 102.57422 -38.164689 98.94145 -14.753128 98.94145 11.103591 C 98.94145 20.479144 99.419022 29.532962 100.31631 38.089125 C 102.42155 36.396434 105.21049 35.917516 107.70278 36.673614 C 106.87166 28.571729 106.42166 19.986114 106.42166 11.103424 C 106.42166 -14.04541 110.02735 -36.812149 115.68368 -52.964766 C 118.51185 -61.041074 121.87191 -67.449713 125.3142 -71.607471 C 128.75649 -75.765228 131.99916 -77.509612 135.02127 -77.509612 C 138.04339 -77.509612 141.28624 -75.765503 144.72853 -71.607746 C 148.17082 -67.449988 151.53141 -61.041215 154.35957 -52.964907 C 160.01591 -36.81229 163.62301 -14.045441 163.62301 11.103393 C 163.62301 31.645049 161.21661 50.598032 157.25241 65.654992 L 161.87721 66.786551 L 164.52511 67.434923 C 168.69053 51.612532 171.10359 32.170477 171.10359 11.103582 C 171.10359 -14.753137 167.46861 -38.164404 161.41999 -55.43726 C 158.39568 -64.073688 154.78813 -71.189964 150.4921 -76.378912 C 146.19606 -81.56786 140.92993 -84.990192 135.02146 -84.990192 C 129.113 -84.990192 123.84866 -81.567993 119.55262 -76.379045 z M 100.8627 42.829365 C 102.1267 52.879112 103.98074 62.163346 106.32434 70.376326 C 106.76188 70.157151 107.17203 69.857745 107.53501 69.478577 L 112.45216 64.342107 C 110.67714 57.339702 109.23432 49.533481 108.20564 41.144703 C 106.46441 39.584687 103.8816 39.675808 102.25029 41.37988 L 100.8627 42.829365 z M 107.40236 73.970109 C 107.79736 75.22285 108.20465 76.447447 108.62318 77.642646 C 111.64749 86.279074 115.25686 93.394946 119.55289 98.583893 C 123.84893 103.77284 129.11292 107.19741 135.02138 107.19741 C 140.86809 107.19741 146.08585 103.84435 150.35702 98.746335 L 150.35738 98.745962 L 147.69879 89.632239 C 146.72298 91.207051 145.72935 92.605991 144.72864 93.814693 C 141.28635 97.972451 138.04369 99.716833 135.02157 99.716833 C 131.99946 99.716833 128.75696 97.972352 125.31467 93.814594 C 121.87238 89.656837 118.5118 83.248063 115.68363 75.171755 C 114.95004 73.076854 114.25112 70.870686 113.58991 68.562506 L 110.23688 72.065086 C 109.41514 72.92348 108.44428 73.558947 107.40236 73.970109 z M 156.2507 69.262345 C 155.64971 71.317447 155.01827 73.289807 154.35917 75.171988 C 153.08427 78.812678 151.70133 82.114121 150.25137 85.02359 L 153.15597 94.993051 C 156.30513 90.280679 159.04264 84.431399 161.41996 77.642575 C 162.1591 75.531828 162.86222 73.329486 163.52705 71.042196 L 160.98757 70.421064 L 156.2507 69.262345 z "
       transform="rotate(46.249691)" /><path
       id="path1-1"
       style="baseline-shift:baseline;display:inline;overflow:visible;vector-effect:none;stroke-linecap:round;stroke-linejoin:round;enable-background:accumulate;stop-color:#000000;stop-opacity:1;opacity:0.983078"
       d="M -19.339825 68.088081 C -15.043792 62.899133 -9.7794976 59.474742 -3.8710351 59.474742 C -1.4090074 59.474742 0.94153297 60.069223 3.1567992 61.138305 C 1.9914326 61.730248 0.90562645 62.524386 -0.046721584 63.519211 C -1.0703607 64.588506 -1.8557178 65.801603 -2.403711 67.091802 C -2.8985097 66.999751 -3.3873563 66.954949 -3.8708673 66.954949 C -6.8929809 66.954949 -10.136004 68.699704 -13.578294 72.857462 C -17.020584 77.015219 -20.380978 83.425694 -23.209144 91.502002 C -28.865477 107.65462 -32.470838 130.41953 -32.470838 155.56836 C -32.470838 180.71719 -28.865196 203.48407 -23.208863 219.63669 C -21.379079 224.86195 -19.326361 229.38901 -17.173021 233.06011 L -22.530074 238.6561 C -25.459665 234.08834 -28.025709 228.51733 -30.269637 222.10942 C -36.318256 204.83657 -39.951045 181.42525 -39.951045 155.56853 C -39.951045 129.71181 -36.31787 106.30206 -30.269251 89.029207 C -27.244942 80.392779 -23.635857 73.277028 -19.339825 68.088081 z M 2.6562713 66.106791 C 3.9192908 64.787438 5.5052291 63.978218 7.1648038 63.684625 C 8.7360282 64.9331 10.218171 66.419597 11.599652 68.088214 C 13.241293 70.071064 14.782248 72.335211 16.228664 74.858165 C 15.847015 75.801718 15.281581 76.691181 14.531373 77.474851 C 13.367474 78.690662 11.928886 79.473628 10.411115 79.818737 C 8.9312449 77.074611 7.3931475 74.736048 5.8378714 72.857513 C 4.1990713 70.878094 2.6052414 69.445418 1.0587345 68.48775 C 1.4368225 67.631823 1.9689079 66.824813 2.6562713 66.106791 z M 12.11492 83.213928 C 14.004789 82.63661 15.775388 81.584241 17.233246 80.061359 C 17.623858 79.653325 17.979778 79.22408 18.300999 78.777842 C 19.822818 81.893166 21.229033 85.321076 22.527523 89.029135 C 28.576141 106.30199 32.211091 129.7118 32.211091 155.56852 C 32.211091 168.95663 31.236781 181.68909 29.457175 193.25333 C 27.143453 191.90851 24.29648 191.81888 21.915437 192.96281 C 23.714501 181.59061 24.730511 168.91474 24.730511 155.56833 C 24.730511 130.4195 21.123081 107.65448 15.466749 91.501861 C 14.415121 88.49876 13.290235 85.726199 12.11492 83.213928 z M 22.311736 197.22314 C 23.97825 195.48229 26.639256 195.42534 28.380101 197.09185 L 28.764963 197.46028 C 27.168353 206.57169 25.059243 214.87849 22.527137 222.10934 C 19.502828 230.74577 15.895579 237.86185 11.599546 243.0508 C 7.3035133 248.23975 2.0373832 251.66381 -3.8710792 251.66381 C -9.7795416 251.66381 -15.043898 248.23961 -19.339931 243.05066 C -19.679696 242.64028 -20.015135 242.21817 -20.34636 241.78388 L -15.093296 236.29652 C -14.591002 237.00516 -14.085499 237.66643 -13.578199 238.27917 C -10.135909 242.43692 -6.893035 244.18177 -3.8709215 244.18177 C -0.84880789 244.18177 2.3956764 242.43697 5.8379661 238.27922 C 9.2802559 234.12146 12.638507 227.71323 15.466673 219.63692 C 17.608769 213.5198 19.457244 206.45416 20.926999 198.66964 L 22.311736 197.22314 z "
       transform="matrix(-0.69151695,0.72236023,0.72236023,0.69151695,0,0)" /><g
       id="path2"
       inkscape:transform-center-x="-1.0341422e-06"
       inkscape:transform-center-y="-3.0651075"
       style="opacity:0.983078"
       transform="matrix(2.5332387,0,0,2.5332387,-114.49568,-125.11218)"><path
         style="baseline-shift:baseline;display:inline;overflow:visible;vector-effect:none;stroke-linecap:round;stroke-linejoin:round;enable-background:accumulate;stop-color:#000000;stop-opacity:1"
         d="m 73.620983,120.93694 h -7.838871 -7.838871 l 3.919435,-6.78866 3.919436,-6.78867 3.919436,6.78867 z"
         id="path12" /></g><g
       id="path3"
       style="opacity:0.983078"><path
         style="baseline-shift:baseline;display:inline;overflow:visible;vector-effect:none;stroke-linecap:round;stroke-linejoin:round;enable-background:accumulate;stop-color:#000000;stop-opacity:1"
         d="M 56.006174,55.85178 A 10.090048,10.090048 0 0 1 45.916126,65.941828 10.090048,10.090048 0 0 1 35.826078,55.85178 10.090048,10.090048 0 0 1 45.916126,45.761732 10.090048,10.090048 0 0 1 56.006174,55.85178 Z"
         id="path6" /></g><g
       id="rect3-3"
       style="opacity:0.983078"><path
         style="baseline-shift:baseline;display:inline;overflow:visible;vector-effect:none;stroke-linecap:round;stroke-linejoin:round;enable-background:accumulate;stop-color:#000000;stop-opacity:1"
         d="m 24.173289,100.606 h 16.642892 c 3.413689,0 6.161894,2.74821 6.161894,6.1619 v 14.66477 c 0,3.41369 -2.748205,6.1619 -6.161894,6.1619 H 24.173289 c -3.41369,0 -6.161894,-2.74821 -6.161894,-6.1619 V 106.7679 c 0,-3.41369 2.748204,-6.1619 6.161894,-6.1619 z"
         id="path10" /></g><g
       id="rect3"
       style="opacity:0.983078"><path
         style="baseline-shift:baseline;display:inline;overflow:visible;vector-effect:none;stroke-linecap:round;stroke-linejoin:round;enable-background:accumulate;stop-color:#000000;stop-opacity:1"
         d="m 127.03706,150.63072 h 71.76297 c 3.41369,0 6.16189,2.74821 6.16189,6.1619 v 18.28551 c 0,3.41369 -2.7482,6.16189 -6.16189,6.16189 h -71.76297 c -3.41369,0 -6.16189,-2.7482 -6.16189,-6.16189 v -18.28551 c 0,-3.41369 2.7482,-6.1619 6.16189,-6.1619 z"
         id="path13" /></g><g
       id="text3-3"
       style="opacity:0.983078"
       transform="matrix(1.8702223,0,0,1.8702223,-85.688225,-63.157752)"><path
         style="font-size:11.2889px;font-family:'Ubuntu Sans';-inkscape-font-specification:'Ubuntu Sans';text-align:center;baseline-shift:baseline;text-anchor:middle;display:inline;overflow:visible;vector-effect:none;fill:#ffffff;stroke-linecap:round;stroke-linejoin:round;enable-background:accumulate;stop-color:#000000;stop-opacity:1"
         d="m 115.2901,126.33928 v -5.57672 q 0.29351,-0.12418 0.80151,-0.24835 0.51929,-0.13547 1.24178,-0.13547 0.23707,0 0.46285,0.0339 0.23706,0.0226 0.41769,0.0677 0.19191,0.0339 0.28222,0.0677 l -0.16933,0.72249 q -0.1016,-0.0452 -0.38383,-0.0903 -0.28222,-0.0564 -0.72249,-0.0564 -0.42897,0 -0.7112,0.0677 -0.28222,0.0564 -0.37253,0.1016 v 5.04614 z m 6.03957,0.12418 q -0.63218,0 -1.12889,-0.18063 -0.49672,-0.18062 -0.77894,-0.58702 -0.28222,-0.4064 -0.28222,-1.07244 0,-0.64347 0.31609,-1.03858 0.31609,-0.4064 0.86924,-0.58703 0.56445,-0.18062 1.26436,-0.18062 0.31609,0 0.66605,0.0564 0.34995,0.0564 0.44026,0.1016 v -0.33867 q 0,-0.38382 -0.1016,-0.73378 -0.0903,-0.36124 -0.38382,-0.58702 -0.29351,-0.22578 -0.89182,-0.22578 -0.62089,0 -0.94827,0.0903 -0.32738,0.0903 -0.48542,0.14676 l -0.11289,-0.72249 q 0.2032,-0.0903 0.62089,-0.16934 0.41769,-0.079 0.98213,-0.079 0.80151,0 1.26436,0.28222 0.47413,0.28223 0.67733,0.77894 0.21449,0.48542 0.21449,1.1176 v 3.66889 q -0.23706,0.0564 -0.84667,0.15805 -0.6096,0.1016 -1.35466,0.1016 z m 0.12417,-0.72249 q 0.39512,0 0.71121,-0.0226 0.31608,-0.0339 0.53057,-0.079 v -1.96427 q -0.11289,-0.0564 -0.38382,-0.11289 -0.27093,-0.0564 -0.69991,-0.0564 -0.36125,0 -0.73378,0.079 -0.37253,0.079 -0.63218,0.31609 -0.24835,0.23706 -0.24835,0.7112 0,0.63218 0.39511,0.88053 0.39511,0.24836 1.06115,0.24836 z m 6.45725,0.73378 q -0.85795,0 -1.51271,-0.36125 -0.65475,-0.37253 -1.016,-1.04987 -0.36124,-0.68862 -0.36124,-1.63689 0,-0.90311 0.3048,-1.59173 0.31609,-0.68862 0.90311,-1.07245 0.59831,-0.39511 1.43369,-0.39511 0.54187,0 0.94827,0.15805 0.41769,0.14675 0.62089,0.29351 v -3.09316 l 0.83537,-0.14676 v 8.57957 q -0.21448,0.0677 -0.53057,0.14675 -0.31609,0.0677 -0.72249,0.11289 -0.39511,0.0564 -0.90312,0.0564 z m 0.0113,-0.75636 q 0.49672,0 0.8128,-0.0452 0.32738,-0.0564 0.49672,-0.1016 v -3.9624 q -0.19192,-0.15804 -0.58703,-0.31609 -0.39511,-0.16933 -0.89182,-0.16933 -0.508,0 -0.86925,0.18062 -0.34995,0.16933 -0.57573,0.48542 -0.21449,0.31609 -0.31609,0.73378 -0.0903,0.41769 -0.0903,0.89182 0,0.73378 0.24836,1.25307 0.25964,0.508 0.7112,0.77894 0.46284,0.27093 1.06115,0.27093 z m 4.04142,0.62089 v -5.84765 h 0.84667 v 5.84765 z m 0.42898,-7.24747 q -0.24836,0 -0.42898,-0.16934 -0.16933,-0.16933 -0.16933,-0.45155 0,-0.27094 0.16933,-0.44027 0.18062,-0.16934 0.42898,-0.16934 0.24835,0 0.41769,0.16934 0.18062,0.16933 0.18062,0.44027 0,0.28222 -0.18062,0.45155 -0.16934,0.16934 -0.41769,0.16934 z m 4.59458,7.36036 q -0.88053,0 -1.39982,-0.32738 -0.508,-0.33867 -0.73378,-0.94827 -0.21449,-0.6096 -0.21449,-1.41111 v -3.27378 h 0.84667 v 3.048 q 0,0.79022 0.15804,1.26436 0.15805,0.47413 0.508,0.68862 0.36125,0.2032 0.94827,0.2032 0.47413,0 0.83538,-0.0451 0.37253,-0.0564 0.48542,-0.0903 v -5.06872 h 0.83538 v 5.64445 q -0.33867,0.0903 -0.9144,0.2032 -0.56445,0.11289 -1.35467,0.11289 z m 5.41866,0.0226 q -0.75635,0 -1.18533,-0.13547 -0.41769,-0.12418 -0.56445,-0.19191 l 0.2032,-0.74507 q 0.12418,0.0452 0.50801,0.19191 0.38382,0.14676 1.03857,0.14676 0.62089,0 1.00472,-0.19191 0.38382,-0.19192 0.38382,-0.66605 0,-0.3048 -0.13547,-0.48542 -0.13546,-0.19191 -0.44027,-0.34996 -0.29351,-0.15804 -0.8128,-0.36124 -0.44026,-0.18062 -0.8128,-0.38383 -0.37253,-0.2032 -0.6096,-0.51928 -0.22578,-0.31609 -0.22578,-0.81281 0,-0.48542 0.24836,-0.84666 0.24836,-0.36125 0.69991,-0.56445 0.46285,-0.2032 1.09503,-0.2032 0.58702,0 0.99342,0.1016 0.4064,0.1016 0.57573,0.18062 l -0.19191,0.73378 q -0.14675,-0.079 -0.47413,-0.18062 -0.32738,-0.11289 -0.92569,-0.11289 -0.47414,0 -0.82409,0.2032 -0.34996,0.19191 -0.34996,0.62089 0,0.3048 0.14676,0.49671 0.14675,0.18063 0.44026,0.32738 0.29352,0.14676 0.72249,0.31609 0.48543,0.19191 0.86925,0.4064 0.39511,0.2032 0.63218,0.53058 0.23707,0.32738 0.23707,0.86924 0,0.53058 -0.27094,0.90312 -0.27093,0.36124 -0.77893,0.54186 -0.49671,0.18063 -1.19663,0.18063 z m 3.57858,-0.13547 q 0,-0.0339 -0.0113,-0.11289 0,-0.079 0,-0.19191 0,-0.7112 0.31608,-1.28694 0.32738,-0.58702 0.80152,-1.07244 0.47413,-0.49671 0.92569,-0.92569 0.38382,-0.36125 0.68862,-0.68862 0.31609,-0.33867 0.508,-0.7112 0.19191,-0.37254 0.19191,-0.83538 0,-0.75636 -0.4064,-1.08374 -0.4064,-0.32738 -1.02729,-0.32738 -0.46284,0 -0.8128,0.14676 -0.33867,0.13547 -0.56445,0.31609 -0.21448,0.16933 -0.31608,0.27093 l -0.44027,-0.57573 q 0.12418,-0.13547 0.4064,-0.34996 0.29351,-0.22578 0.73378,-0.39511 0.44026,-0.16933 0.99342,-0.16933 1.16276,0 1.74978,0.56444 0.58702,0.56445 0.58702,1.55787 0,0.58702 -0.27093,1.09502 -0.27093,0.49672 -0.7112,0.95956 -0.42898,0.45156 -0.90311,0.90311 -0.36125,0.34996 -0.7112,0.73378 -0.34996,0.37254 -0.57574,0.74507 -0.21449,0.36124 -0.21449,0.69991 h 3.64632 v 0.73378 z"
         id="path4" /><path
         style="font-size:11.2889px;font-family:'Ubuntu Sans';-inkscape-font-specification:'Ubuntu Sans';text-align:center;baseline-shift:baseline;text-anchor:middle;display:inline;overflow:visible;vector-effect:none;fill:#ffffff;stroke-linecap:round;stroke-linejoin:round;enable-background:accumulate;stop-color:#000000;stop-opacity:1"
         d="m 130.0332,117.38281 -0.83593,0.14649 a 0.20002,0.20002 0 0 0 -0.16602,0.19726 v 2.77735 c -0.11353,-0.0546 -0.19928,-0.11171 -0.34766,-0.16407 -0.29892,-0.11625 -0.64079,-0.17187 -1.02148,-0.17187 -0.58845,0 -1.10838,0.14074 -1.54297,0.42773 -0.42344,0.27687 -0.75018,0.66732 -0.97461,1.15625 a 0.20002,0.20002 0 0 0 -0.002,0.002 c -0.2163,0.48867 -0.32227,1.0473 -0.32227,1.67187 0,0.65758 0.1264,1.23795 0.38477,1.73047 a 0.20002,0.20002 0 0 0 0,0.002 c 0.25728,0.4824 0.62571,0.86261 1.09375,1.12891 a 0.20002,0.20002 0 0 0 0.004,0.002 c 0.46886,0.25869 1.00739,0.38477 1.60743,0.38477 0.3439,0 0.65179,-0.0178 0.92578,-0.0566 0.27617,-0.0307 0.52321,-0.0703 0.74218,-0.11719 a 0.20002,0.20002 0 0 0 0.008,0 c 0.21343,-0.0534 0.39244,-0.10349 0.54101,-0.15039 a 0.20002,0.20002 0 0 0 0.14063,-0.19141 v -8.58007 a 0.20002,0.20002 0 0 0 -0.23438,-0.19532 z m 2.35938,0.2793 c -0.21103,0 -0.41263,0.0785 -0.56641,0.22266 a 0.20002,0.20002 0 0 0 -0.004,0.004 c -0.15061,0.1506 -0.22852,0.35974 -0.22852,0.58203 0,0.22815 0.0763,0.44158 0.22852,0.59375 a 0.20002,0.20002 0 0 0 0.004,0.004 c 0.15378,0.14418 0.35538,0.22266 0.56641,0.22266 0.21013,0 0.40935,-0.0783 0.55664,-0.22461 0.15961,-0.15072 0.24219,-0.3658 0.24219,-0.59571 0,-0.22416 -0.0842,-0.43479 -0.24219,-0.58398 -0.14729,-0.14628 -0.34651,-0.22461 -0.55664,-0.22461 z m -2.52539,0.1543 v 8.1914 c -0.11435,0.0334 -0.22724,0.0656 -0.37891,0.10352 -0.20128,0.0429 -0.4319,0.0781 -0.69531,0.10742 a 0.20002,0.20002 0 0 0 -0.008,0.002 c -0.25154,0.0359 -0.54373,0.0547 -0.875,0.0547 -0.54231,0 -1.00877,-0.11424 -1.41211,-0.33594 l -0.002,-0.002 c -0.40331,-0.23006 -0.71363,-0.54758 -0.9375,-0.9668 v -0.002 c -0.22275,-0.42533 -0.33789,-0.93692 -0.33789,-1.54297 0,-0.57957 0.099,-1.08027 0.28907,-1.50976 0.19693,-0.42787 0.46963,-0.75193 0.82812,-0.98633 a 0.20002,0.20002 0 0 0 0.002,0 c 0.36316,-0.23982 0.79688,-0.36133 1.32227,-0.36133 0.3418,0 0.63401,0.0481 0.87695,0.14258 a 0.20002,0.20002 0 0 0 0.006,0.004 c 0.26836,0.0943 0.46193,0.18735 0.57031,0.26563 a 0.20002,0.20002 0 0 0 0.31641,-0.16211 v -2.92383 z m 2.52539,0.24414 c 0.12011,0 0.19902,0.033 0.27734,0.11133 a 0.20002,0.20002 0 0 0 0.004,0.004 c 0.0816,0.0765 0.11719,0.15874 0.11719,0.29492 0,0.14548 -0.0372,0.23168 -0.11719,0.30664 a 0.20002,0.20002 0 0 0 -0.004,0.004 c -0.0783,0.0783 -0.15723,0.11133 -0.27734,0.11133 -0.11915,0 -0.20275,-0.0331 -0.28906,-0.11328 -0.0725,-0.0733 -0.10938,-0.16157 -0.10938,-0.3086 0,-0.13786 0.0354,-0.22214 0.10938,-0.29687 0.0863,-0.0802 0.16991,-0.11328 0.28906,-0.11328 z m 15.57812,0.0859 c -0.38918,0 -0.74475,0.0606 -1.06445,0.1836 -0.30741,0.11823 -0.56838,0.25662 -0.7832,0.42187 -0.19305,0.14672 -0.33534,0.26781 -0.4336,0.375 a 0.20002,0.20002 0 0 0 -0.01,0.25586 l 0.43945,0.57617 a 0.20002,0.20002 0 0 0 0.30078,0.0195 c 0.0573,-0.0573 0.15906,-0.14551 0.29883,-0.25586 0.13148,-0.10518 0.30212,-0.20249 0.51367,-0.28711 a 0.20002,0.20002 0 0 0 0.004,-0.002 c 0.20431,-0.0857 0.44695,-0.13086 0.73437,-0.13086 0.37878,0 0.67016,0.0962 0.90235,0.28321 0.21233,0.17105 0.33203,0.45931 0.33203,0.92773 0,0.28092 -0.0574,0.52576 -0.16992,0.74414 -0.11877,0.23055 -0.27702,0.45222 -0.47657,0.66602 -0.19967,0.21445 -0.42652,0.44141 -0.67968,0.67969 -0.30365,0.28846 -0.61547,0.60031 -0.9336,0.93359 -0.32733,0.33546 -0.60368,0.70734 -0.83008,1.11328 a 0.20002,0.20002 0 0 0 -0.002,0 c -0.22744,0.41428 -0.33984,0.881 -0.33984,1.38477 v 0.1914 a 0.20002,0.20002 0 0 0 0.002,0.0273 c 0.007,0.0487 0.01,0.0856 0.01,0.0859 a 0.20002,0.20002 0 0 0 0.19921,0.19922 h 4.58399 a 0.20002,0.20002 0 0 0 0.19922,-0.19922 v -0.73437 a 0.20002,0.20002 0 0 0 -0.19922,-0.19922 h -3.38477 c 0.0266,-0.12885 0.039,-0.25361 0.125,-0.39844 0.14192,-0.23376 0.32429,-0.47191 0.54883,-0.71093 a 0.20002,0.20002 0 0 0 0.002,-0.002 c 0.22998,-0.25223 0.46408,-0.49288 0.70118,-0.72265 l 0.002,-0.002 c 0.31764,-0.30257 0.62042,-0.60527 0.9082,-0.9082 0.30402,-0.3196 0.55227,-0.65375 0.74219,-1.00195 a 0.20002,0.20002 0 0 0 0,-0.002 c 0.19567,-0.36689 0.29492,-0.76733 0.29492,-1.18945 0,-0.70167 -0.21483,-1.28424 -0.64844,-1.70117 -0.4389,-0.42202 -1.08113,-0.6211 -1.88867,-0.6211 z m 0,0.4004 c 0.74281,0 1.26754,0.17724 1.61133,0.50781 0.34909,0.33567 0.52539,0.79117 0.52539,1.41406 0,0.36058 -0.0805,0.69151 -0.24609,1.00195 -0.17123,0.31364 -0.39707,0.61891 -0.67969,0.91602 -0.28357,0.2985 -0.58269,0.59568 -0.89648,0.89453 a 0.20002,0.20002 0 0 0 -0.002,0.002 c -0.24389,0.23628 -0.48275,0.48335 -0.71875,0.74219 -0.24049,0.25626 -0.4411,0.51582 -0.59961,0.77734 -0.157,0.26442 -0.24414,0.53474 -0.24414,0.80274 a 0.20002,0.20002 0 0 0 0.20117,0.19922 h 3.44532 v 0.33398 h -4.19336 v -0.10351 c 0,-0.44382 0.0976,-0.83651 0.29101,-1.18946 v -0.002 c 0.20953,-0.37542 0.46589,-0.71843 0.76953,-1.0293 a 0.20002,0.20002 0 0 0 0.002,-0.002 c 0.31404,-0.329 0.61953,-0.63446 0.91797,-0.91797 0.25859,-0.24339 0.49053,-0.47523 0.69726,-0.69726 0.22191,-0.23777 0.40195,-0.48971 0.53906,-0.75586 0.14339,-0.27834 0.21485,-0.59154 0.21485,-0.92774 0,-0.54006 -0.15094,-0.97282 -0.48047,-1.23828 -0.30968,-0.24947 -0.70522,-0.37305 -1.1543,-0.37305 -0.3297,0 -0.62636,0.0541 -0.88867,0.16407 -0.23884,0.0958 -0.44435,0.20861 -0.61328,0.34375 -0.0697,0.055 -0.10673,0.0911 -0.16016,0.13672 l -0.19922,-0.25782 c 0.072,-0.0658 0.13285,-0.12525 0.25586,-0.21875 0.17652,-0.13578 0.40594,-0.25964 0.68555,-0.36718 0.26731,-0.10282 0.57156,-0.15625 0.91992,-0.15625 z m -26.5957,1.60937 c -0.38562,0 -0.72491,0.0263 -1.01953,0.082 -0.28631,0.0542 -0.50191,0.11154 -0.66406,0.1836 a 0.20002,0.20002 0 0 0 -0.11719,0.21289 l 0.11328,0.72265 a 0.20002,0.20002 0 0 0 0.26367,0.15821 c 0.096,-0.0343 0.25675,-0.083 0.47266,-0.14258 0.18701,-0.0516 0.4903,-0.084 0.89453,-0.084 0.37372,0 0.62591,0.0751 0.76953,0.18555 0.16268,0.12513 0.26229,0.27569 0.3125,0.47656 a 0.20002,0.20002 0 0 0 0.002,0.008 c 0.0623,0.21451 0.0937,0.43951 0.0937,0.67774 v 0.0898 c -0.0707,-0.0141 -0.10873,-0.0346 -0.20898,-0.0508 -0.24265,-0.0391 -0.47464,-0.0586 -0.69727,-0.0586 -0.48381,0 -0.92701,0.0617 -1.32617,0.18945 a 0.20002,0.20002 0 0 0 0,0.002 c -0.40015,0.13067 -0.73017,0.35007 -0.96679,0.6543 -0.24205,0.30434 -0.35743,0.70006 -0.35743,1.16016 0,0.47227 0.10102,0.87452 0.31836,1.1875 0.21159,0.30468 0.51001,0.52743 0.875,0.66015 0.35675,0.12974 0.75677,0.19336 1.19727,0.19336 0.5058,0 0.96728,-0.0356 1.38672,-0.10547 0.40817,-0.0681 0.69205,-0.11988 0.86133,-0.16015 a 0.20002,0.20002 0 0 0 0.15234,-0.19531 v -3.66797 c 0,-0.44185 -0.0741,-0.84168 -0.22852,-1.19336 l -0.002,-0.002 c -0.15124,-0.36809 -0.40904,-0.66543 -0.75781,-0.87304 -0.35219,-0.21425 -0.81013,-0.31055 -1.36719,-0.31055 z m 21.42578,0 c -0.44288,0 -0.83652,0.0718 -1.17578,0.2207 -0.32897,0.14804 -0.59549,0.35978 -0.7832,0.63282 -0.18927,0.27529 -0.28321,0.60321 -0.28321,0.96093 0,0.36145 0.0824,0.67864 0.26172,0.92969 a 0.20002,0.20002 0 0 0 0.004,0.002 c 0.17587,0.23449 0.40286,0.42837 0.67383,0.57618 0.25556,0.1394 0.53248,0.26968 0.83203,0.39257 a 0.20002,0.20002 0 0 0 0.004,0.002 c 0.34172,0.13371 0.60524,0.25258 0.78907,0.35156 a 0.20002,0.20002 0 0 0 0.004,0 c 0.18459,0.0957 0.30468,0.19773 0.36914,0.28906 a 0.20002,0.20002 0 0 0 0.004,0.004 c 0.0579,0.0772 0.0937,0.19166 0.0937,0.36523 0,0.26212 -0.0745,0.3898 -0.27148,0.48828 -0.21731,0.10865 -0.5227,0.16993 -0.91602,0.16993 -0.42156,0 -0.74635,-0.0485 -0.9668,-0.13282 -0.2562,-0.0979 -0.42581,-0.16209 -0.51172,-0.19336 a 0.20002,0.20002 0 0 0 -0.26171,0.13477 l -0.20313,0.74609 a 0.20002,0.20002 0 0 0 0.10938,0.23243 c 0.12032,0.0555 0.30927,0.11825 0.58789,0.20117 0.31817,0.10047 0.72992,0.14453 1.24609,0.14453 0.48309,0 0.90453,-0.0611 1.26367,-0.19141 0.36775,-0.13075 0.66408,-0.33335 0.8711,-0.60937 a 0.20002,0.20002 0 0 0 0.002,-0.004 c 0.20719,-0.28489 0.30859,-0.63177 0.30859,-1.01953 0,-0.39041 -0.0846,-0.72562 -0.27344,-0.98633 -0.17612,-0.24321 -0.41243,-0.44026 -0.69726,-0.58789 l -0.002,-0.002 c -0.26453,-0.14768 -0.56095,-0.28568 -0.89063,-0.41602 -0.28211,-0.11136 -0.51869,-0.21442 -0.70703,-0.30859 -0.17615,-0.0881 -0.29741,-0.18209 -0.37109,-0.27149 v -0.002 c -0.0662,-0.0872 -0.10547,-0.20277 -0.10547,-0.37305 0,-0.2316 0.0679,-0.34758 0.24609,-0.44531 a 0.20002,0.20002 0 0 0 0.004,-0.002 c 0.19938,-0.11577 0.43708,-0.17578 0.72461,-0.17578 0.38629,0 0.67662,0.0385 0.85937,0.10156 a 0.20002,0.20002 0 0 0 0.006,0.002 c 0.21232,0.0659 0.36476,0.12581 0.43945,0.16602 a 0.20002,0.20002 0 0 0 0.28711,-0.12695 l 0.19336,-0.73243 a 0.20002,0.20002 0 0 0 -0.10937,-0.23242 c -0.13869,-0.0647 -0.3349,-0.12425 -0.61133,-0.19336 -0.29291,-0.0732 -0.64008,-0.10742 -1.04297,-0.10742 z m -25.4668,0.0234 c -0.49416,0 -0.92485,0.0446 -1.29296,0.14062 -0.34291,0.084 -0.61726,0.1686 -0.82813,0.25782 a 0.20002,0.20002 0 0 0 -0.12305,0.18359 v 5.57812 a 0.20002,0.20002 0 0 0 0.20118,0.19922 h 0.8457 a 0.20002,0.20002 0 0 0 0.19922,-0.19922 v -4.89648 c 0.0552,-0.0169 0.0926,-0.0326 0.21289,-0.0566 a 0.20002,0.20002 0 0 0 0.008,0 c 0.1658,-0.0398 0.3886,-0.0625 0.66406,-0.0625 0.28498,0 0.51505,0.0191 0.6836,0.0527 a 0.20002,0.20002 0 0 0 0.008,0 c 0.18156,0.029 0.30652,0.064 0.33398,0.0762 a 0.20002,0.20002 0 0 0 0.27539,-0.13672 l 0.16993,-0.72266 a 0.20002,0.20002 0 0 0 -0.125,-0.23242 c -0.0796,-0.0298 -0.17937,-0.0517 -0.30469,-0.0742 -0.12928,-0.0323 -0.27499,-0.0565 -0.43555,-0.0723 -0.16068,-0.0241 -0.32461,-0.0352 -0.49219,-0.0352 z m 14.62891,0.11133 a 0.20002,0.20002 0 0 0 -0.19922,0.20117 v 5.84765 a 0.20002,0.20002 0 0 0 0.19922,0.19922 h 0.84766 a 0.20002,0.20002 0 0 0 0.19922,-0.19922 v -5.84765 a 0.20002,0.20002 0 0 0 -0.19922,-0.20117 z m 2.67578,0 a 0.20002,0.20002 0 0 0 -0.19922,0.20117 v 3.27344 c 0,0.55218 0.0745,1.04427 0.22657,1.47656 a 0.20002,0.20002 0 0 0 0,0.004 c 0.16329,0.4409 0.43717,0.79601 0.81054,1.04493 a 0.20002,0.20002 0 0 0 0.004,0.004 c 0.38933,0.24545 0.896,0.35742 1.50781,0.35742 0.53634,0 0.99868,-0.0384 1.39258,-0.11718 0.38643,-0.0758 0.69474,-0.14296 0.92773,-0.20508 a 0.20002,0.20002 0 0 0 0.14844,-0.19336 v -5.64453 a 0.20002,0.20002 0 0 0 -0.20117,-0.20117 h -0.83399 a 0.20002,0.20002 0 0 0 -0.20117,0.20117 v 4.90234 c -0.0806,0.0168 -0.1455,0.033 -0.31445,0.0586 -0.22944,0.0285 -0.49838,0.043 -0.80664,0.043 -0.36665,0 -0.64539,-0.0659 -0.8457,-0.17773 -0.18705,-0.1158 -0.32627,-0.29716 -0.41993,-0.57813 -0.0948,-0.28447 -0.14843,-0.68769 -0.14843,-1.20117 v -3.04687 a 0.20002,0.20002 0 0 0 -0.19922,-0.20117 z m -13.26367,0.26562 c 0.51087,0 0.8954,0.0905 1.16016,0.25195 a 0.20002,0.20002 0 0 0 0.002,0.002 c 0.28256,0.1682 0.4739,0.38867 0.59375,0.68164 a 0.20002,0.20002 0 0 0 0.002,0.006 c 0.13002,0.29425 0.19727,0.63827 0.19727,1.03711 v 3.5039 c -0.16004,0.0338 -0.3482,0.07 -0.67774,0.125 -0.39336,0.0656 -0.83465,0.0996 -1.32226,0.0996 -0.40241,0 -0.75502,-0.0569 -1.06055,-0.16797 -0.2973,-0.1081 -0.51888,-0.27649 -0.68359,-0.51367 -0.15895,-0.22889 -0.2461,-0.54321 -0.2461,-0.95898 0,-0.39623 0.0939,-0.69202 0.27149,-0.91407 a 0.20002,0.20002 0 0 0 0.002,-0.002 c 0.18483,-0.23764 0.43606,-0.40936 0.77344,-0.51953 0.35344,-0.1131 0.75372,-0.16992 1.20312,-0.16992 0.19884,0 0.40885,0.0166 0.63282,0.0527 0.22768,0.0367 0.38529,0.0852 0.38281,0.084 a 0.20002,0.20002 0 0 0 0.29101,-0.17969 v -0.33789 c 0,-0.2722 -0.0388,-0.53416 -0.11132,-0.78516 -0.0705,-0.2796 -0.22519,-0.51998 -0.45313,-0.69531 -0.24773,-0.19056 -0.58964,-0.26562 -1.01367,-0.26562 -0.42362,0 -0.75246,0.0288 -1.00195,0.0977 -0.11947,0.0329 -0.18206,0.0553 -0.26953,0.082 l -0.0508,-0.32226 c 0.11418,-0.0387 0.23,-0.0787 0.4336,-0.11719 0.26229,-0.0496 0.57835,-0.0742 0.94531,-0.0742 z m 21.42578,0 c 0.37981,0 0.69636,0.0335 0.94531,0.0957 0.18848,0.0471 0.28108,0.0829 0.38282,0.11914 l -0.0879,0.33399 c -0.0873,-0.034 -0.15289,-0.0666 -0.27149,-0.10352 -4.9e-4,-1.7e-4 -0.001,1.7e-4 -0.002,0 -0.25354,-0.0871 -0.57763,-0.12304 -0.98828,-0.12304 -0.34313,0 -0.65545,0.0748 -0.92188,0.22851 -5.3e-4,3e-4 5.4e-4,0.002 0,0.002 -0.2874,0.15837 -0.45312,0.45322 -0.45312,0.79296 0,0.2353 0.0586,0.45062 0.1875,0.61914 a 0.20002,0.20002 0 0 0 0.004,0.004 c 0.12227,0.1505 0.29276,0.27431 0.50586,0.38086 0.20302,0.10151 0.44844,0.20785 0.73828,0.32227 0.31669,0.1252 0.599,0.25666 0.84571,0.39453 a 0.20002,0.20002 0 0 0 0.006,0.004 c 0.23902,0.12293 0.42388,0.27928 0.5625,0.47071 0.1273,0.17579 0.19921,0.41988 0.19921,0.75195 0,0.31894 -0.0791,0.57166 -0.23242,0.7832 -0.15422,0.20563 -0.37596,0.36258 -0.68554,0.47266 -0.30279,0.11011 -0.6795,0.16992 -1.12891,0.16992 -0.49229,0 -0.8712,-0.0468 -1.125,-0.12695 a 0.20002,0.20002 0 0 0 -0.004,0 c -0.19395,-0.0577 -0.28077,-0.0926 -0.3789,-0.12891 l 0.0957,-0.35351 c 0.0906,0.0341 0.14968,0.0567 0.30273,0.11523 0.29132,0.11139 0.65794,0.16016 1.10938,0.16016 0.43453,0 0.79928,-0.0657 1.09375,-0.21289 0.31481,-0.15742 0.49414,-0.47565 0.49414,-0.84571 0,-0.23124 -0.0529,-0.43845 -0.17383,-0.60156 -0.11614,-0.1636 -0.28886,-0.29757 -0.50976,-0.41211 -0.2062,-0.11077 -0.4815,-0.23142 -0.82813,-0.36719 l -0.004,-0.002 c -0.28581,-0.11742 -0.54911,-0.24216 -0.78907,-0.37305 -0.22487,-0.12265 -0.40299,-0.27496 -0.54297,-0.46093 -5.4e-4,-7.2e-4 -0.001,-10e-4 -0.002,-0.002 -0.12035,-0.17004 -0.1875,-0.3943 -0.1875,-0.69336 0,-0.2895 0.073,-0.52801 0.21484,-0.73437 0.14316,-0.20823 0.34294,-0.37133 0.61524,-0.49414 0.27788,-0.122 0.61365,-0.18555 1.01367,-0.18555 z m -25.4668,0.0215 c 0.14852,-1e-5 0.29129,0.0121 0.43165,0.0332 a 0.20002,0.20002 0 0 0 0.0117,0 c 0.15031,0.0143 0.28059,0.0355 0.38868,0.0625 a 0.20002,0.20002 0 0 0 0.0137,0.004 c 0.0378,0.007 0.0455,0.011 0.0762,0.0176 l -0.0781,0.33594 c -0.0648,-0.0145 -0.10868,-0.0329 -0.19531,-0.0469 -0.20774,-0.0415 -0.45966,-0.0606 -0.76172,-0.0606 -0.29347,0 -0.54083,0.0229 -0.75,0.0723 -0.19419,0.0388 -0.31883,0.0666 -0.42382,0.11914 a 0.20002,0.20002 0 0 0 -0.10938,0.17774 v 4.8457 h -0.44727 v -5.22851 c 0.17216,-0.0651 0.36898,-0.13287 0.64844,-0.20118 a 0.20002,0.20002 0 0 0 0.004,-0.002 c 0.32427,-0.0846 0.72224,-0.12891 1.1914,-0.1289 z m 14.83008,0.11328 h 0.44727 v 5.44726 h -0.44727 z m 2.67578,0 h 0.44532 v 2.84765 c 0,0.54015 0.054,0.98041 0.16992,1.32813 0.11651,0.34951 0.31395,0.62658 0.59179,0.79687 a 0.20002,0.20002 0 0 0 0.008,0.002 c 0.28118,0.15816 0.6305,0.23046 1.04492,0.23046 0.32243,0 0.60982,-0.0155 0.86133,-0.0469 a 0.20002,0.20002 0 0 0 0.004,-0.002 c 0.25126,-0.038 0.40964,-0.0645 0.51368,-0.0957 a 0.20002,0.20002 0 0 0 0.14257,-0.1914 v -4.86914 h 0.43555 v 5.28515 c -0.20535,0.0511 -0.43545,0.10357 -0.75391,0.16602 -0.3587,0.0717 -0.79716,0.10937 -1.31445,0.10937 -0.56062,0 -0.98812,-0.10685 -1.29101,-0.29687 -0.30128,-0.20191 -0.51707,-0.47671 -0.6543,-0.8457 -0.13389,-0.38052 -0.20313,-0.82726 -0.20313,-1.34375 z m -7.08593,0.23242 c -0.36237,0 -0.68461,0.064 -0.95899,0.20117 -0.26143,0.12678 -0.48158,0.31249 -0.65039,0.54883 a 0.20002,0.20002 0 0 0 -0.002,0.004 c -0.15774,0.23246 -0.27307,0.50022 -0.3457,0.79883 a 0.20002,0.20002 0 0 0 0,0.004 c -0.0635,0.29374 -0.0957,0.60676 -0.0957,0.93555 0,0.51175 0.0862,0.95861 0.26758,1.33789 a 0.20002,0.20002 0 0 0 0.004,0.006 c 0.18792,0.36767 0.45133,0.65907 0.78515,0.85937 a 0.20002,0.20002 0 0 0 0.002,0 c 0.34098,0.1996 0.73304,0.29883 1.16211,0.29883 0.33721,0 0.61654,-0.0147 0.84179,-0.0469 a 0.20002,0.20002 0 0 0 0.006,0 c 0.22138,-0.0381 0.38978,-0.0724 0.51367,-0.10546 a 0.20002,0.20002 0 0 0 0.14844,-0.19336 v -3.96289 a 0.20002,0.20002 0 0 0 -0.0723,-0.1543 c -0.15339,-0.12631 -0.36372,-0.23685 -0.63476,-0.3457 -0.2913,-0.12484 -0.61684,-0.18555 -0.9707,-0.18555 z m 0,0.40039 c 0.30841,0 0.57698,0.0514 0.8125,0.15234 a 0.20002,0.20002 0 0 0 0.004,0.002 c 0.21752,0.087 0.35494,0.17047 0.46094,0.24609 v 3.68555 c -0.0938,0.0209 -0.17951,0.0394 -0.32422,0.0644 -0.19619,0.0281 -0.46007,0.043 -0.78515,0.043 -0.36798,0 -0.68128,-0.0812 -0.95704,-0.24219 -0.26706,-0.16024 -0.47674,-0.3858 -0.63476,-0.69336 v -0.002 c -0.14929,-0.31285 -0.22852,-0.69819 -0.22852,-1.16406 0,-0.30339 0.029,-0.58643 0.0859,-0.84961 0.0625,-0.25478 0.15687,-0.47304 0.2832,-0.66016 0.13193,-0.1847 0.29544,-0.3229 0.5,-0.42187 a 0.20002,0.20002 0 0 0 0.002,-0.002 c 0.20729,-0.10364 0.46628,-0.1582 0.78125,-0.1582 z m -6.14258,1.98242 c -0.25541,0 -0.51421,0.0266 -0.77539,0.082 -0.27885,0.0591 -0.52451,0.18252 -0.72461,0.36524 a 0.20002,0.20002 0 0 0 -0.004,0.002 c -0.21374,0.20402 -0.31054,0.50446 -0.31054,0.85547 -1e-5,0.46312 0.16209,0.84452 0.49023,1.05078 0.30627,0.19252 0.69713,0.2793 1.16602,0.2793 0.26722,0 0.50992,-0.008 0.72656,-0.0234 a 0.20002,0.20002 0 0 0 0.006,0 c 0.2153,-0.0231 0.3983,-0.05 0.55078,-0.082 a 0.20002,0.20002 0 0 0 0.16015,-0.19727 v -1.96289 a 0.20002,0.20002 0 0 0 -0.11132,-0.17969 c -0.10861,-0.0542 -0.24344,-0.0897 -0.43164,-0.1289 -0.20124,-0.0419 -0.44744,-0.0605 -0.74219,-0.0605 z m 0,0.39844 c 0.27722,0 0.50015,0.0194 0.66015,0.0527 0.11638,0.0243 0.16375,0.0439 0.22461,0.0645 v 1.64453 c -0.108,0.0183 -0.20938,0.0375 -0.35156,0.0527 -0.20355,0.0144 -0.43398,0.0215 -0.6914,0.0215 -0.41917,0 -0.73259,-0.0782 -0.95313,-0.2168 -0.19867,-0.12488 -0.30273,-0.3331 -0.30273,-0.71289 0,-0.2803 0.0708,-0.45237 0.1875,-0.56445 0.14545,-0.13179 0.31887,-0.21977 0.53515,-0.26563 0.23552,-0.0499 0.46515,-0.0762 0.69141,-0.0762 z"
         id="path5" /></g><path
       style="fill:#000000;fill-opacity:1;stroke-width:0.103963"
       d="m 99.773957,73.826873 c -0.385933,0.0169 -1.139633,-0.04272 -1.038619,0.558197 -0.06763,1.536696 -0.0095,3.081262 -0.07575,4.613396 -1.409728,-2.02352 -3.260951,-3.895561 -5.689662,-4.607287 -1.62109,-0.564772 -3.383704,-0.447683 -5.064505,-0.300334 -2.296544,0.411378 -4.441982,2.0124 -5.119611,4.302518 -0.930023,2.805788 0.49351,6.104399 3.02486,7.544102 2.510527,1.207402 5.82214,1.027213 7.877538,-0.985447 1.123007,-1.023052 1.771177,-2.528193 1.65549,-4.052326 0.04091,-1.058595 -0.07445,-2.128456 0.02499,-3.180875 0.658948,-0.112051 1.064686,0.651743 1.421842,1.084948 1.252528,1.743271 1.403926,3.927524 1.428937,5.993352 0.09981,4.861081 0.04329,9.734552 0.06123,14.600392 -1.336467,0.0377 -2.707046,-0.0739 -4.02271,0.0548 0.06276,0.46223 -0.375862,1.615061 0.425601,1.483921 6.757652,0 13.515302,0 20.272952,0 0.20101,-0.30862 0.34316,-1.400811 -0.10391,-1.538751 -0.88714,0 -1.77429,0 -2.66143,0 0,-7.838842 0,-15.677695 0,-23.516539 0.95563,-0.0361 1.94423,0.07212 2.87911,-0.05482 -0.0509,-0.438268 0.35127,-1.486472 -0.41654,-1.378735 -4.52905,-0.211906 -9.06263,-0.3293 -13.58892,-0.603077 -0.43011,-0.01452 -0.86047,-0.02573 -1.290832,-0.01747 z"
       id="path68"
       inkscape0:connector-curvature="0" /></g></svg>
